<svg width="29" height="29" viewBox="0 0 29 29" fill="none" xmlns="http://www.w3.org/2000/svg">
<path d="M21.2832 18.7471C23.0382 16.352 23.8242 13.3824 23.484 10.4326C23.1439 7.48269 21.7026 4.77006 19.4486 2.83736C17.1946 0.904655 14.294 -0.105587 11.3272 0.00874455C8.36042 0.123076 5.54619 1.35355 3.44755 3.45399C1.3489 5.55444 0.120614 8.36994 0.00842153 11.3372C-0.103771 14.3045 0.908404 17.2048 2.84245 19.4577C4.77649 21.7107 7.48977 23.1502 10.4395 23.4883C13.3891 23.8264 16.3577 23.0381 18.7512 21.2812H18.7494C18.8038 21.3537 18.8618 21.4226 18.927 21.4897L25.9049 28.4685C26.2447 28.8086 26.7058 28.9998 27.1866 29C27.6673 29.0002 28.1285 28.8093 28.4686 28.4694C28.8087 28.1295 28.9998 27.6684 29 27.1876C29.0002 26.7067 28.8093 26.2455 28.4695 25.9054L21.4916 18.9265C21.4268 18.8609 21.3572 18.8003 21.2832 18.7453V18.7471ZM21.7508 11.7791C21.7508 13.0884 21.493 14.3848 20.992 15.5944C20.4911 16.804 19.7568 17.903 18.8311 18.8288C17.9055 19.7546 16.8066 20.489 15.5972 20.99C14.3877 21.491 13.0915 21.7489 11.7824 21.7489C10.4734 21.7489 9.17712 21.491 7.9677 20.99C6.75828 20.489 5.65938 19.7546 4.73373 18.8288C3.80808 17.903 3.07381 16.804 2.57286 15.5944C2.0719 14.3848 1.81406 13.0884 1.81406 11.7791C1.81406 9.13496 2.8643 6.59911 4.73373 4.72941C6.60316 2.85971 9.13866 1.80933 11.7824 1.80933C14.4262 1.80933 16.9617 2.85971 18.8311 4.72941C20.7006 6.59911 21.7508 9.13496 21.7508 11.7791V11.7791Z" fill="#8E8EA7"/>
</svg>
